<svg xmlns="http://www.w3.org/2000/svg" width="40.027" height="39.984" viewBox="0 0 40.027 39.984">
  <g id="Page-1" transform="translate(0.003 -0.059)">
    <g id="_038---Calling" data-name="038---Calling" transform="translate(-0.003 0.059)">
      <circle id="Oval" cx="2.76" cy="2.76" r="2.76" transform="translate(26.226 11)" fill="#fff"/>
      <circle id="Oval-2" data-name="Oval" cx="2.76" cy="2.76" r="2.76" transform="translate(34.507 11)" fill="#fff"/>
      <circle id="Oval-3" data-name="Oval" cx="2.76" cy="2.76" r="2.76" transform="translate(17.945 11)" fill="#fff"/>
      <path id="Shape" d="M17.573,23.47A16.154,16.154,0,0,1,12.7,14.3a1.372,1.372,0,0,1,.394-1.148l3.092-3.09a1.38,1.38,0,0,0,.195-1.708L11.453.708a1.38,1.38,0,0,0-1.788-.5l-7.9,3.722A1.373,1.373,0,0,0,1,5.3C1.418,9.232,3.133,18.9,12.635,28.4S31.806,39.622,35.741,40.036a1.373,1.373,0,0,0,1.371-.759l3.722-7.9a1.38,1.38,0,0,0-.5-1.785L32.69,24.668a1.38,1.38,0,0,0-1.708.193l-3.09,3.092a1.372,1.372,0,0,1-1.148.394A16.154,16.154,0,0,1,17.573,23.47Z" transform="translate(-0.997 -0.059)" fill="#fff"/>
    </g>
  </g>
</svg>
