<?xml version="1.0" encoding="utf-8"?><svg xmlns="http://www.w3.org/2000/svg" width="137" height="158.092" viewBox="0 0 137 158.092">
  <g id="Group_182" data-name="Group 182" transform="translate(288 -5037)">
    <g id="Group_181" data-name="Group 181" transform="translate(-287 5038)">     
      <path id="Path_228" data-name="Path 228" d="M212.472,173.8h8.9v8.564h5.664V173.8h8.9v25.42h-8.9v-8.834h-5.664v8.834h-8.9V173.8" transform="translate(-177.232 -163.142)" fill="#fff" fill-rule="evenodd"/>
      <path id="Path_229" data-name="Path 229" d="M244.74,173.8h9.239v25.42H244.74V173.8" transform="translate(-181.146 -163.142)" fill="#fff" fill-rule="evenodd"/>
      <path id="Path_230" data-name="Path 230" d="M268.06,199.225h-9.778l8.833-25.421H277.33l9.07,25.421h-9.778l-.843-3.17H268.8l-.742,3.17m6.1-9.2-1.079-4.484c-.27-1.079-.438-2.192-.607-3.271h-.337l-1.685,7.755h3.709" transform="translate(-182.788 -163.141)" fill="#fff" fill-rule="evenodd"/>
      <path id="Path_231" data-name="Path 231" d="M231.556,225.794l-18.545,15.231,26.429-4.764-7.883-10.467" transform="translate(-177.298 -169.446)" fill="#ffd90f" fill-rule="evenodd"/>
      <path id="Path_232" data-name="Path 232" d="M237.734,222.689l21.012,28.135,11.04-1.78s.5-10.506,17.51-10.506v7.3l17.837-3.2-21.37-27.958-2.843.624v9.362l-2.417.7V214.5l-7.026-4.808-8.191,1.336,6.569,5.211v10.637l-7.994-8.458-24.129,4.273" transform="translate(-180.296 -167.493)" fill="#ffd90f" fill-rule="evenodd"/>
      <path id="Path_233" data-name="Path 233" d="M209.127,238.516V214.181s9.023-.683,9.023,6.885v9.972l-9.023,7.479" transform="translate(-176.827 -168.036)" fill="#fff" fill-rule="evenodd"/>
      <path id="Path_234" data-name="Path 234" d="M222.8,227.659V207.6s10.18.356,10.18,7.242V219.2l-10.18,8.459" transform="translate(-178.485 -167.239)" fill="#fff" fill-rule="evenodd"/>
      <path id="Path_235" data-name="Path 235" d="M237.8,219.43v-7.983s10.18.682,10.18,6.292L237.8,219.43" transform="translate(-180.304 -167.706)" fill="#fff" fill-rule="evenodd"/>
      <path id="Path_236" data-name="Path 236" d="M259.092,323.181V304.47l20.893-30.179V243.138s-13.771-1.145-13.771,11v10.078L251.257,273.6v-2.749l6.173-4.095v-2.09l-14.068-11.912v-7.644l-3.977-5.326-7.123,1.518v13.687l-2.878.772V241.678l-10.417,1.8v15.033l-2.849.773V243.825l-9.023,1.545v16.407l-2.968.945V242.966s.979-11.052-11.752-11.052v42.377l29.915,28.862v19.729a189.667,189.667,0,0,0,20.005,1.039c6.012,0,11.592-.281,16.8-.74" transform="translate(-174.795 -170.189)" fill="#fff" fill-rule="evenodd"/>
      <path id="Path_237" data-name="Path 237" d="M249.209,340.442h0" transform="translate(-181.68 -183.35)" fill="#00b202" fill-rule="evenodd"/>
    </g>
  </g>
</svg>
