<svg id="paper-plane_4_" data-name="paper-plane (4)" xmlns="http://www.w3.org/2000/svg" width="46.957" height="45" viewBox="0 0 46.957 45">
  <path id="Path_199" data-name="Path 199" d="M8.75,17.612v9.074a1.467,1.467,0,0,0,2.649.869l5.308-7.223Z" transform="translate(8.37 16.846)" fill="#fff"/>
  <path id="Path_200" data-name="Path 200" d="M46.34.272A1.468,1.468,0,0,0,44.81.166L.789,23.155a1.468,1.468,0,0,0,.2,2.69L13.23,30.029,39.293,7.744l-20.168,24.3,20.51,7.01a1.5,1.5,0,0,0,.473.078,1.466,1.466,0,0,0,1.452-1.25l5.38-36.2a1.47,1.47,0,0,0-.6-1.413Z" transform="translate(0 0)" fill="#fff"/>
</svg>
