<svg xmlns="http://www.w3.org/2000/svg" width="29.714" height="39.983" viewBox="0 0 29.714 39.983">
  <g id="location-pin_1_" data-name="location-pin (1)" transform="translate(-1.251)">
    <path id="Path_196" data-name="Path 196" d="M109.6,88.183a7.182,7.182,0,1,0-7.183,7.182A7.191,7.191,0,0,0,109.6,88.183Zm0,0" transform="translate(-86.306 -73.326)" fill="#fff"/>
    <path id="Path_197" data-name="Path 197" d="M29.087,39.983c1.113-1.45,7.638-10.417,9.834-13.413,2.613-3.563,5.023-7.138,5.023-11.713A14.857,14.857,0,0,0,29.087,0h0A14.855,14.855,0,0,0,14.23,14.857c0,4.575,2.41,8.15,5.022,11.713l9.834,13.413ZM19.062,14.857A10.025,10.025,0,1,1,29.087,24.882,10.036,10.036,0,0,1,19.062,14.857Zm0,0" transform="translate(-12.98)" fill="#fff"/>
  </g>
</svg>
