<svg xmlns="http://www.w3.org/2000/svg" width="25.027" height="25" viewBox="0 0 25.027 25">
  <g id="Page-1" transform="translate(0.003 -0.059)">
    <g id="_038---Calling" data-name="038---Calling" transform="translate(-0.003 0.059)">
      <circle id="Oval" cx="1.726" cy="1.726" r="1.726" transform="translate(16.398 6.878)" fill="#153764"/>
      <circle id="Oval-2" data-name="Oval" cx="1.726" cy="1.726" r="1.726" transform="translate(21.576 6.878)" fill="#153764"/>
      <circle id="Oval-3" data-name="Oval" cx="1.726" cy="1.726" r="1.726" transform="translate(11.22 6.878)" fill="#153764"/>
      <path id="Shape" d="M11.361,14.7a10.1,10.1,0,0,1-3.05-5.734.858.858,0,0,1,.246-.718l1.933-1.932a.863.863,0,0,0,.122-1.068L7.535.465A.863.863,0,0,0,6.417.151L1.476,2.478A.858.858,0,0,0,1,3.335,23.883,23.883,0,0,0,8.274,17.782a23.877,23.877,0,0,0,14.447,7.273.858.858,0,0,0,.857-.475l2.327-4.941a.863.863,0,0,0-.313-1.116l-4.779-3.077a.863.863,0,0,0-1.068.121L17.813,17.5a.858.858,0,0,1-.718.246,10.1,10.1,0,0,1-5.734-3.05Z" transform="translate(-0.997 -0.059)" fill="#153764"/>
    </g>
  </g>
</svg>
