<svg xmlns="http://www.w3.org/2000/svg" width="70.441" height="50" viewBox="0 0 70.441 50">
  <g id="Group_109" data-name="Group 109" transform="translate(-333.231 -469.073)">
    <g id="Group_107" data-name="Group 107" transform="translate(333.231 469.073)">
      <path id="Path_176" data-name="Path 176" d="M342.75,1106.417Z" transform="translate(-342.252 -1073.121)" fill="#a5d0ff"/>
      <path id="Path_177" data-name="Path 177" d="M403.547,500.53a1.7,1.7,0,0,0-.373-.562h0l-12.912-12.912a1.686,1.686,0,0,0,.077-.5V470.771a1.7,1.7,0,1,0-3.4,0v12.967L374.985,471.78a9.24,9.24,0,0,0-13.068,0l-28.189,28.189a1.7,1.7,0,1,0,2.4,2.4l28.189-28.189a5.8,5.8,0,0,1,1.939-1.283,5.922,5.922,0,0,1,2.21-.426,5.807,5.807,0,0,1,4.116,1.709l28.189,28.189a1.7,1.7,0,0,0,2.774-1.839Z" transform="translate(-333.231 -469.073)" fill="#a5d0ff"/>
    </g>
    <g id="Group_108" data-name="Group 108" transform="translate(349.958 487.857)">
      <path id="Path_178" data-name="Path 178" d="M773.894,838.577v-4.085h7.3v18.053h-4.6V838.577Z" transform="translate(-767.6 -834.185)" fill="#a5d0ff"/>
      <path id="Path_179" data-name="Path 179" d="M963.041,837.767a11.528,11.528,0,0,1,1.711-6.677q1.71-2.464,5.464-2.464a6.189,6.189,0,0,1,5.452,2.464,13.87,13.87,0,0,1,0,13.393,6.175,6.175,0,0,1-5.452,2.477q-3.753,0-5.464-2.477A11.639,11.639,0,0,1,963.041,837.767Zm10.01,0a9.448,9.448,0,0,0-.575-3.715,2.229,2.229,0,0,0-2.26-1.289,2.272,2.272,0,0,0-2.3,1.3,9.274,9.274,0,0,0-.587,3.7,9.451,9.451,0,0,0,.587,3.741,2.268,2.268,0,0,0,2.3,1.315,2.223,2.223,0,0,0,2.26-1.315A9.643,9.643,0,0,0,973.051,837.767Z" transform="translate(-946.865 -828.625)" fill="#a5d0ff"/>
      <path id="Path_180" data-name="Path 180" d="M657.461,1263.922H656.3v-3.345l-2.885-5.5h1.277l2.183,4.43,2.17-4.43h1.29l-2.873,5.5Z" transform="translate(-653.414 -1232.795)" fill="#a5d0ff"/>
      <path id="Path_181" data-name="Path 181" d="M812.548,1255.074v.92h-3.524v3.013h3.141v.906h-3.141V1263h3.524v.919h-4.686v-8.848Z" transform="translate(-799.793 -1232.795)" fill="#a5d0ff"/>
      <path id="Path_182" data-name="Path 182" d="M930.2,1263.922l-.69-1.941h-3.932l-.689,1.941H923.7l3.217-8.848h1.277l3.2,8.848Zm-4.29-2.86h3.268l-1.634-4.571Z" transform="translate(-909.579 -1232.795)" fill="#a5d0ff"/>
      <path id="Path_183" data-name="Path 183" d="M1101.3,1260.27v3.651h-1.162v-8.848h2.873a3.237,3.237,0,0,1,2.279.728,2.335,2.335,0,0,1,.785,1.781,2.482,2.482,0,0,1-2.3,2.636l2.438,3.7h-1.455l-2.324-3.651Zm0-4.264v3.345h1.711a2.011,2.011,0,0,0,1.424-.44,1.614,1.614,0,0,0,.466-1.232q0-1.672-1.89-1.673Z" transform="translate(-1076.801 -1232.795)" fill="#a5d0ff"/>
      <path id="Path_184" data-name="Path 184" d="M1248.392,1255.817a1.207,1.207,0,0,0,.268.8,1.591,1.591,0,0,0,.689.472,7.586,7.586,0,0,0,.938.268q.517.115,1.034.261a4.541,4.541,0,0,1,.938.377,1.786,1.786,0,0,1,.689.689,2.222,2.222,0,0,1,.268,1.136,2.425,2.425,0,0,1-.791,1.8,2.945,2.945,0,0,1-2.139.766,3.6,3.6,0,0,1-2.19-.619,1.974,1.974,0,0,1-.843-1.679h1.238a1.386,1.386,0,0,0,.479.97,1.893,1.893,0,0,0,1.271.37,1.969,1.969,0,0,0,1.34-.434,1.311,1.311,0,0,0,.5-1.015,1.333,1.333,0,0,0-.269-.894,1.61,1.61,0,0,0-.689-.466,6.884,6.884,0,0,0-.939-.262q-.517-.109-1.034-.262a4.548,4.548,0,0,1-.939-.389,1.826,1.826,0,0,1-.689-.7,2.285,2.285,0,0,1-.268-1.156,2.261,2.261,0,0,1,.8-1.807,3.09,3.09,0,0,1,2.081-.683,3.231,3.231,0,0,1,2.043.594,2.308,2.308,0,0,1,.875,1.641h-1.29a1.3,1.3,0,0,0-.492-.894,1.785,1.785,0,0,0-1.187-.37,1.9,1.9,0,0,0-1.219.377A1.328,1.328,0,0,0,1248.392,1255.817Z" transform="translate(-1216.232 -1231.176)" fill="#a5d0ff"/>
    </g>
  </g>
</svg>
