<svg xmlns="http://www.w3.org/2000/svg" width="41.694" height="50" viewBox="0 0 41.694 50">
  <g id="Group_5" data-name="Group 5" transform="translate(-372.006 -326.509)">
    <path id="Path_10" data-name="Path 10" d="M392.017,362.6h2.849v-5.7a8.66,8.66,0,0,1,1.726-5.2,19.365,19.365,0,0,0-7.49-4.241c-5.206-1.961-7.352-3.248-7.352-5.27,0-1.715,1.285-3.43,5.267-3.43a20.353,20.353,0,0,1,8.826,2.081l1.776-6.924a22.1,22.1,0,0,0-8.884-2.022v-5.393H382.73v5.822c-6.556,1.288-10.356,5.515-10.356,10.908,0,5.944,4.476,9.007,11.031,11.212,4.534,1.533,6.494,3,6.494,5.332,0,2.451-2.389,3.8-5.884,3.8a21.651,21.651,0,0,1-10.171-2.7l-1.838,7.169a24.663,24.663,0,0,0,10.418,2.637v5.819h6.006v-6.248a17.061,17.061,0,0,0,3.587-1.021Z" transform="translate(0 0)" fill="#a5d0ff"/>
    <path id="Path_11" data-name="Path 11" d="M521.026,481.706h-2.9v-5.99a4.377,4.377,0,0,0-8.755,0v5.99h-2.9v-5.99a7.28,7.28,0,0,1,14.561,0Zm2.849,1.13H503.617V495.2h20.258Z" transform="translate(-110.175 -118.81)" fill="#a5d0ff"/>
  </g>
</svg>
