<svg xmlns="http://www.w3.org/2000/svg" width="72.386" height="37.726" viewBox="0 0 72.386 37.726">
  <g id="right-arrow_16_" data-name="right-arrow (16)" transform="translate(0)">
    <g id="Group_33" data-name="Group 33" transform="translate(0)">
      <path id="Path_29" data-name="Path 29" d="M18.863,37.726A18.863,18.863,0,1,0,0,18.863,18.885,18.885,0,0,0,18.863,37.726Zm0-35.841A16.978,16.978,0,1,1,1.885,18.863,17,17,0,0,1,18.863,1.885Z" transform="translate(34.66)" fill="#153764"/>
      <path id="Path_30" data-name="Path 30" d="M87.346,171.285h58.492l-3.693,3.693a.944.944,0,0,0,1.339,1.331l5.3-5.3a.938.938,0,0,0,0-1.331l-5.3-5.3a.941.941,0,0,0-1.331,1.331l3.693,3.693h-58.5a.942.942,0,1,0,0,1.885Z" transform="translate(-86.4 -151.476)" fill="#153764"/>
    </g>
  </g>
</svg>
