<svg xmlns="http://www.w3.org/2000/svg" width="33" height="30.249" viewBox="0 0 33 30.249">
  <g id="checkmark" transform="translate(0 -0.008)">
    <path id="Path_188" data-name="Path 188" d="M15.125,30.257A15.124,15.124,0,1,1,23.283,2.4a1.032,1.032,0,0,1-1.115,1.737,13.06,13.06,0,1,0,6.018,11c0-.431-.021-.857-.06-1.276a1.031,1.031,0,1,1,2.053-.2q.07.728.07,1.475A15.142,15.142,0,0,1,15.125,30.257Zm0,0" fill="#153764"/>
    <path id="Path_189" data-name="Path 189" d="M156.558,38.534a1.024,1.024,0,0,1-.729-.3l-6.187-6.187a1.032,1.032,0,1,1,1.459-1.459l5.459,5.459L170.954,21.65a1.032,1.032,0,1,1,1.459,1.459L157.288,38.233a1.033,1.033,0,0,1-.73.3Zm0,0" transform="translate(-139.715 -19.964)" fill="#153764"/>
  </g>
</svg>
