<svg xmlns="http://www.w3.org/2000/svg" width="63.941" height="50" viewBox="0 0 63.941 50">
  <g id="Group_4" data-name="Group 4" transform="translate(-325.833 -469.073)">
    <path id="Path_5" data-name="Path 5" d="M786.116,782.281c-.982-1.7-4.4-1.107-6.1-2.089-1.645-.952-2.819-4.233-4.856-4.233s-3.212,3.281-4.856,4.233c-1.7.982-5.116.392-6.1,2.089-.952,1.645,1.241,4.289,1.241,6.326s-2.192,4.681-1.241,6.325c.881,1.523,3.727,1.2,5.528,1.834a3.259,3.259,0,0,1,1.151.7,8.99,8.99,0,0,1,.941,1.06c.956,1.213,1.9,2.625,3.187,2.726h0c.049,0,.1.006.147.006,1.239,0,2.16-1.215,3.061-2.381a14.139,14.139,0,0,1,1-1.2,4.1,4.1,0,0,1,.636-.551,3.135,3.135,0,0,1,.732-.357c1.8-.629,4.646-.31,5.528-1.834.952-1.645-1.241-4.289-1.241-6.325S787.067,783.925,786.116,782.281Zm-10.954,13.934a7.608,7.608,0,1,1,7.608-7.608A7.617,7.617,0,0,1,775.162,796.214Z" transform="translate(-417.358 -292.333)" fill="#a5d0ff"/>
    <path id="Path_6" data-name="Path 6" d="M1030.7,1263.352h0a7.7,7.7,0,0,0-1.147,1.3,8.783,8.783,0,0,1-3.125,2.87l-.545,2.033,1.039,3.877a.489.489,0,0,0,.921.068l.956-2.2a.978.978,0,0,1,1.479-.4l1.927,1.425a.489.489,0,0,0,.763-.52Z" transform="translate(-666.85 -756.612)" fill="#a5d0ff"/>
    <path id="Path_7" data-name="Path 7" d="M817.621,1264.654a7.694,7.694,0,0,0-1.147-1.3h0L813.7,1273.7a.489.489,0,0,0,.763.52l1.927-1.425a.978.978,0,0,1,1.478.4l.956,2.2a.489.489,0,0,0,.921-.068l2.006-7.487C819.813,1267.489,818.562,1265.872,817.621,1264.654Z" transform="translate(-464.714 -756.612)" fill="#a5d0ff"/>
    <circle id="Ellipse_1" data-name="Ellipse 1" cx="5.237" cy="5.237" r="5.237" transform="translate(350.398 496.273) rotate(-45)" fill="#a5d0ff"/>
    <g id="Group_3" data-name="Group 3" transform="translate(325.833 469.073)">
      <path id="Path_8" data-name="Path 8" d="M335.352,1106.417Z" transform="translate(-334.901 -1076.193)" fill="#a5d0ff"/>
      <path id="Path_9" data-name="Path 9" d="M389.662,497.628a1.539,1.539,0,0,0-.339-.51h0L377.6,485.4a1.53,1.53,0,0,0,.07-.457V470.614a1.541,1.541,0,1,0-3.082,0v11.77L363.735,471.53a8.388,8.388,0,0,0-11.862,0l-25.588,25.588a1.541,1.541,0,1,0,2.18,2.18l25.588-25.588a5.262,5.262,0,0,1,1.76-1.164,5.374,5.374,0,0,1,2.006-.387,5.271,5.271,0,0,1,3.736,1.551L387.143,499.3a1.542,1.542,0,0,0,2.518-1.67Z" transform="translate(-325.833 -469.073)" fill="#a5d0ff"/>
    </g>
  </g>
</svg>
