<?xml version="1.0" encoding="utf-8"?><svg xmlns="http://www.w3.org/2000/svg" width="38.288" height="50" viewBox="0 0 38.288 50">
  <g id="Group_110" data-name="Group 110" transform="translate(-227.446 -190.989)">
    <path id="Path_185" data-name="Path 185" d="M267.481,477.481a3.9,3.9,0,0,0-4.255-1.049,3.157,3.157,0,0,1-4.408-2.314,5.072,5.072,0,0,0-.367-.891L254,485.365l6.964-1.566,4.335,5.671,3.965-10.868A4.045,4.045,0,0,1,267.481,477.481Z" transform="translate(-23.379 -248.481)" fill="#a5d0ff"/>
    <path id="Path_186" data-name="Path 186" d="M403.833,473.957a3.157,3.157,0,0,1-4.408,2.314,3.9,3.9,0,0,0-4.255,1.049,4.045,4.045,0,0,1-1.785,1.12l3.965,10.868,4.335-5.671,6.964,1.566-4.436-12.158A5.041,5.041,0,0,0,403.833,473.957Z" transform="translate(-146.09 -248.319)" fill="#a5d0ff"/>
    <path id="Path_187" data-name="Path 187" d="M262.675,218.854a1.993,1.993,0,0,1-1.864,2.7,5.07,5.07,0,0,0-4.211,3.731,1.993,1.993,0,0,1-2.906,1.525,5.07,5.07,0,0,0-5.463,1.346,1.992,1.992,0,0,1-3.282,0,5.071,5.071,0,0,0-3.676-1.638,5.944,5.944,0,0,0-1.787.292,1.992,1.992,0,0,1-2.906-1.525,5.07,5.07,0,0,0-4.211-3.731,1.993,1.993,0,0,1-1.864-2.7,5.07,5.07,0,0,0-2-5.26,1.993,1.993,0,0,1-.4-3.258,5.07,5.07,0,0,0,.678-5.585,1.993,1.993,0,0,1,1.164-3.068,5.07,5.07,0,0,0,3.2-4.63,1.992,1.992,0,0,1,2.457-2.176,5.069,5.069,0,0,0,4.982-2.615,1.993,1.993,0,0,1,3.187-.785,5.069,5.069,0,0,0,5.626,0,1.993,1.993,0,0,1,3.186.785,5.071,5.071,0,0,0,4.982,2.615,1.992,1.992,0,0,1,2.456,2.176,5.07,5.07,0,0,0,3.2,4.63,1.992,1.992,0,0,1,1.164,3.068,5.07,5.07,0,0,0,.678,5.585,1.993,1.993,0,0,1-.4,3.258A5.07,5.07,0,0,0,262.675,218.854Zm-5.787-7.237a1.331,1.331,0,0,0-1.3-1.595h-.242a1.331,1.331,0,0,0,1.3-1.6,1.368,1.368,0,0,0-1.359-1.06h-4.366V203.54c0-2.119-1.09-3.389-2.544-3.688a.544.544,0,0,0-.686.608c0,3.735-1.007,7.284-5.433,7.666a.882.882,0,0,0-.816.873v6.784a.877.877,0,0,0,.877.877h1.157c2.329,0,2.456,1.327,4.928,1.327h6.641a1.368,1.368,0,0,0,1.359-1.06,1.331,1.331,0,0,0-1.3-1.6h.184a1.368,1.368,0,0,0,1.359-1.06,1.331,1.331,0,0,0-1.3-1.595h.184A1.368,1.368,0,0,0,256.888,211.617Zm-17.21-4.279h-2.733a.681.681,0,0,0-.68.68V216.8a.681.681,0,0,0,.68.68h2.733a.681.681,0,0,0,.68-.68v-8.784A.681.681,0,0,0,239.679,207.338Z" transform="translate(0)" fill="#a5d0ff"/>
  </g>
</svg>
