<?xml version="1.0" encoding="utf-8"?><svg xmlns="http://www.w3.org/2000/svg" width="55.547" height="47" viewBox="0 0 55.547 47">
  <g id="Group_6" data-name="Group 6" transform="translate(-18.407 -23.268)">
    <path id="Path_12" data-name="Path 12" d="M63.256,64.529a5.059,5.059,0,1,1-5.049-5.076A5.064,5.064,0,0,1,63.256,64.529Z" transform="translate(-4.199 -4.375)" fill="#a5d0ff"/>
    <path id="Path_13" data-name="Path 13" d="M31.938,64.555l-.009,4.431a21.8,21.8,0,0,1-8.228-6l-1.1.818a1.693,1.693,0,0,1-1.029.352,1.738,1.738,0,0,1-1.723-1.53l-.765-6.417a1.727,1.727,0,0,1,.422-1.354,1.76,1.76,0,0,1,1.978-.44l5.943,2.549a1.732,1.732,0,0,1,.352,2.971l-.853.633A18.028,18.028,0,0,0,31.938,64.555Z" transform="translate(-0.08 -3.75)" fill="#a5d0ff"/>
    <path id="Path_14" data-name="Path 14" d="M62.028,45.078a20.933,20.933,0,0,1-.185,2.8l-4.053-.009a17.113,17.113,0,0,0,.22-2.787,17.8,17.8,0,0,0-35.595,0,2,2,0,1,1-4.009,0,21.81,21.81,0,0,1,43.621,0Z" transform="translate(0 0)" fill="#a5d0ff"/>
    <path id="Path_15" data-name="Path 15" d="M53.935,41.1a1.872,1.872,0,0,0-.136-.317,1.715,1.715,0,0,0-1.529-.931,1.822,1.822,0,0,0-.81.2l-8.854,4.344a2.675,2.675,0,0,0-1.294-.015L35.3,42.117a1.688,1.688,0,0,0-1.158-.068,1.7,1.7,0,0,0-.219,3.186l5.456,2.694a2.726,2.726,0,0,0,2.55,1.786,2.635,2.635,0,0,0,.765-.106,2.724,2.724,0,0,0,1.733-1.567l8.649-4.919A1.736,1.736,0,0,0,53.935,41.1ZM42.376,48.578a1.6,1.6,0,0,1-.428.06,1.512,1.512,0,0,1-.428-2.963A1.546,1.546,0,0,1,43.4,46.7,1.521,1.521,0,0,1,42.376,48.578Z" transform="translate(-1.754 -2.005)" fill="#a5d0ff"/>
    <path id="Path_16" data-name="Path 16" d="M74.328,53.78l-36.316-.088a1.778,1.778,0,0,0-1.785,1.776l-.035,16.606a1.771,1.771,0,0,0,1.767,1.785l36.316.088a1.778,1.778,0,0,0,1.785-1.776L76.1,55.564A1.778,1.778,0,0,0,74.328,53.78ZM71.673,67.81a4.413,4.413,0,0,0-3.991,4.009l-23.094-.062A4.411,4.411,0,0,0,40.6,67.766l.018-7.982a4.17,4.17,0,0,0,3.991-3.965l23.094.062c.6,2.646,1.591,3.631,3.991,3.956Z" transform="translate(-2.15 -3.678)" fill="#a5d0ff"/>
  </g>
</svg>
