<?xml version="1.0" encoding="utf-8"?><svg xmlns="http://www.w3.org/2000/svg" width="57.281" height="50" viewBox="0 0 57.281 50">
  <g id="Group_2" data-name="Group 2" transform="translate(-2165.082 -1823.205)">
    <path id="Path_2" data-name="Path 2" d="M2356.351,1940.87a1.629,1.629,0,0,0,1.641-1.643v-2.29c4.85-.459,8.134-3.245,8.134-7.445,0-4.085-2.482-6.415-8.285-7.865V1914.3a13.914,13.914,0,0,1,3.933,1.68,2.2,2.2,0,0,0,1.145.344,2.1,2.1,0,0,0,2.138-2.1,2.045,2.045,0,0,0-1.145-1.833,13.892,13.892,0,0,0-5.919-2.1v-.84a1.629,1.629,0,0,0-1.641-1.642,1.662,1.662,0,0,0-1.68,1.642v.8c-4.774.382-8.018,3.207-8.018,7.293,0,4.314,2.6,6.413,8.17,7.865v7.521a13.538,13.538,0,0,1-5.651-2.558,2.1,2.1,0,0,0-3.359,1.68,2.1,2.1,0,0,0,1.03,1.833,16.524,16.524,0,0,0,7.828,2.978v2.366A1.662,1.662,0,0,0,2356.351,1940.87Zm1.489-14.738c2.939.916,3.779,1.946,3.779,3.628,0,1.831-1.335,3.054-3.779,3.32Zm-6.682-8.859c0-1.68,1.221-2.978,3.665-3.208v6.759C2351.884,1919.871,2351.159,1918.877,2351.159,1917.274Z" transform="translate(-162.246 -75.947)" fill="#a5d0ff"/>
    <path id="Path_3" data-name="Path 3" d="M2177.924,1845.69a.648.648,0,0,0-.434-1.053l-2.556-.276a19.809,19.809,0,0,1,3.481-8.925,21,21,0,0,1,11.122-8.086,21.906,21.906,0,0,1,14.221.459,23.37,23.37,0,0,1,6.378,3.742,23.824,23.824,0,0,1,4.9,5.7.422.422,0,0,0,.54.159.414.414,0,0,0,.189-.555,25.021,25.021,0,0,0-4.576-6.444,25.293,25.293,0,0,0-6.514-4.683,24.913,24.913,0,0,0-16.048-1.984,25.833,25.833,0,0,0-19.9,19.95l-2.925-.316a.648.648,0,0,0-.649.936l4.868,9.677a.649.649,0,0,0,1.083.117Z" transform="translate(0 0)" fill="#a5d0ff"/>
    <path id="Path_4" data-name="Path 4" d="M2273.128,2007.92a.648.648,0,0,0-1.083-.117l-6.821,8.415a.648.648,0,0,0,.434,1.053l2.554.276a19.934,19.934,0,0,1-3.54,9.006,21.048,21.048,0,0,1-11.263,8.057,21.945,21.945,0,0,1-14.312-.647,23.048,23.048,0,0,1-6.363-3.868,23.741,23.741,0,0,1-4.829-5.826.422.422,0,0,0-.537-.17.414.414,0,0,0-.2.551,24.476,24.476,0,0,0,27.117,13.577,25.831,25.831,0,0,0,20.138-20.01l2.922.315a.648.648,0,0,0,.648-.936Z" transform="translate(-55.703 -165.502)" fill="#a5d0ff"/>
  </g>
</svg>
