<?xml version="1.0" encoding="utf-8"?><svg xmlns="http://www.w3.org/2000/svg" width="66.532" height="55" viewBox="0 0 66.532 55">
  <path id="Path_21" data-name="Path 21" d="M516.876,335.726h13.812v1.867H516.876v-1.867ZM542.6,359.62h-4.639v-28.8h-7.271v-1.955H499.7v1.955h-1.411v4.947h-2.24V315.326l-10.617-7.111H480v9.153H492.36v1.867H480v1.805H492.36v1.867H480v1.805H492.36v1.866H480v1.805H492.36v1.867H480v1.805H492.36v1.867H480v1.8H492.36v1.867H480V339.4H492.36v1.867H480v1.8H492.36v1.867H480v1.8H492.36v1.868H480v1.8H492.36v1.867H480v1.805H492.36v1.867H480v1.8H492.36v1.867H476.067v3.6H542.6v-3.6ZM516.876,339.4h13.812v1.867H516.876V339.4Zm0,3.671h13.812v1.867H516.876v-1.867Zm0,3.671h13.812v1.868H516.876v-1.868Zm0,3.671h13.812v1.867H516.876V350.41Zm0,3.672h13.812v1.867H516.876v-1.867Zm0,3.671h13.812v1.867H516.876v-1.867ZM499.7,335.726h13.813v1.867H499.7v-1.867Zm0,3.672h13.813v1.867H499.7V339.4Zm0,3.671h13.813v1.867H499.7v-1.867Zm0,3.671h13.813v1.868H499.7v-1.868Zm0,3.671h13.813v1.867H499.7V350.41Zm0,3.672h13.813v1.867H499.7v-1.867Zm0,3.671h13.813v1.867H499.7Z" transform="translate(-476.067 -308.215)" fill="#153764" fill-rule="evenodd"/>
</svg>
