<svg xmlns="http://www.w3.org/2000/svg" width="713.88" height="58.2" viewBox="0 0 713.88 58.2">
  <g id="Component_1_1" data-name="Component 1 – 1" transform="translate(0.5 0.5)">
    <path id="Path_228" data-name="Path 228" d="M-336.2-47.6a8.422,8.422,0,0,0-5.48,1.72,5.792,5.792,0,0,0-2.12,4.76,6.826,6.826,0,0,0,1.56,4.76,10,10,0,0,0,4.12,2.64,52.067,52.067,0,0,0,5.6,1.64q3.04.72,6.08,1.76a29.87,29.87,0,0,1,5.6,2.56,11.087,11.087,0,0,1,4.12,4.44,14.851,14.851,0,0,1,1.56,7.08A15.442,15.442,0,0,1-320.64-4.4Q-326.12.56-335.2.56t-14.68-4.28q-5.6-4.28-5.6-12.04h12q.64,7.36,8.4,7.36a8.8,8.8,0,0,0,6.08-2,6.782,6.782,0,0,0,2.24-5.32,5.952,5.952,0,0,0-2.96-5.24,22.116,22.116,0,0,0-7.16-2.88q-4.2-.96-8.44-2.32a15.772,15.772,0,0,1-7.2-4.76,13.218,13.218,0,0,1-2.96-9,14.973,14.973,0,0,1,5.52-12.16q5.52-4.56,14.2-4.56t13.96,3.96q5.28,3.96,5.76,12.04h-12.32a7.582,7.582,0,0,0-2.4-5.08A7.8,7.8,0,0,0-336.2-47.6Zm70.48-8.4v8.64h-20.96v14.64h18.56v8.64h-18.56V-8.64h20.96V0h-32.24V-56Zm33.44,56-20.4-55.84h11.92l15.28,44.56,15.28-44.56h12L-218.68,0Zm79.84-56v8.64H-173.4v14.64h18.56v8.64H-173.4V-8.64h20.96V0h-32.24V-56Zm54.48,0h11.28V0H-97.96l-25.28-38.72V0h-11.28V-56h11.28l25.28,38.72ZM-26.6-22.24V0H-37.88V-55.84h20.56q9.68,0,14.92,4.84A15.632,15.632,0,0,1,2.84-39.04,16.8,16.8,0,0,1-.36-29.2q-3.2,4.56-10.08,6.24L3.8,0H-9.56L-22.92-22.24Zm0-24.96v16.32h9.28q4.24,0,6.48-2.2A7.973,7.973,0,0,0-8.6-39.04,7.973,7.973,0,0,0-10.84-45q-2.24-2.2-6.48-2.2ZM58.2-14.76q4.72-5,4.72-13.32T58.2-41.36a16.232,16.232,0,0,0-12.32-4.96,16.3,16.3,0,0,0-12.36,5q-4.76,5-4.76,13.28t4.76,13.28a16.294,16.294,0,0,0,12.36,5A16.166,16.166,0,0,0,58.2-14.76ZM45.88.56A27.9,27.9,0,0,1,25.56-7.52q-8.24-8.08-8.24-20.52T25.6-48.56a27.981,27.981,0,0,1,20.32-8.08A27.846,27.846,0,0,1,66.2-48.56q8.24,8.08,8.24,20.52T66.2-7.52A27.9,27.9,0,0,1,45.88.56Zm81.6-15.32q4.72-5,4.72-13.32t-4.72-13.28a16.232,16.232,0,0,0-12.32-4.96,16.3,16.3,0,0,0-12.36,5q-4.76,5-4.76,13.28t4.76,13.28a16.294,16.294,0,0,0,12.36,5A16.166,16.166,0,0,0,127.48-14.76ZM115.16.56A27.9,27.9,0,0,1,94.84-7.52Q86.6-15.6,86.6-28.04t8.28-20.52a27.981,27.981,0,0,1,20.32-8.08,27.846,27.846,0,0,1,20.28,8.08q8.24,8.08,8.24,20.52T135.48-7.52A27.9,27.9,0,0,1,115.16.56ZM159,0V-55.84h34.56v8.64H170.28v14.64h17.76v8.64H170.28V0Zm49.84,0V-55.84h11.28V0Zm66.24-56h11.28V0H275.08L249.8-38.72V0H238.52V-56H249.8l25.28,38.72Zm34.8,48.4q-8.24-8.08-8.24-20.48t8.28-20.48a27.932,27.932,0,0,1,20.28-8.08A28.887,28.887,0,0,1,346.4-52a25.465,25.465,0,0,1,10.12,13.04H343q-3.76-7.36-12.8-7.36a16.3,16.3,0,0,0-12.36,5q-4.76,5-4.76,13.28t4.76,13.28a15.5,15.5,0,0,0,11.68,5q6.92,0,10.88-3.4a14.834,14.834,0,0,0,4.92-9.16H326.76v-8.56H357.4v8.56a26.884,26.884,0,0,1-8.96,15.96Q340.92.48,329.52.48A27.08,27.08,0,0,1,309.88-7.6Z" transform="translate(355.48 56.64)" fill="none" stroke="#fff" stroke-width="1" opacity="0.16"/>
  </g>
</svg>
